<?xml version="1.0" encoding="UTF-8"?>
<svg width="30px" height="30px" viewBox="0 0 30 30" version="1.1" xmlns="http://www.w3.org/2000/svg" xmlns:xlink="http://www.w3.org/1999/xlink">
    <!-- Generator: Sketch 56.2 (81672) - https://sketch.com -->
    <title>30应用程序@2x</title>
    <desc>Created with Sketch.</desc>
    <g id="页面1" stroke="none" stroke-width="1" fill="none" fill-rule="evenodd">
        <g id="allsaas" transform="translate(-163.000000, -25.000000)" fill-rule="nonzero">
            <g id="编组-3" transform="translate(158.000000, 20.000000)">
                <g id="30应用程序">
                    <rect id="矩形" fill="#000000" opacity="0" x="0" y="0" width="40" height="40"></rect>
                    <path d="M18.125,18.75 L5.625,18.75 C5.28125,18.75 5,18.46875 5,18.125 L5,5.625 C5,5.28125 5.28125,5 5.625,5 L18.125,5 C18.46875,5 18.75,5.28125 18.75,5.625 L18.75,18.125 C18.75,18.46875 18.46875,18.75 18.125,18.75 Z M18.75,34.375 L18.75,21.875 C18.75,21.53125 18.46875,21.25 18.125,21.25 L5.625,21.25 C5.28125,21.25 5,21.53125 5,21.875 L5,34.375 C5,34.71875 5.28125,35 5.625,35 L18.125,35 C18.46875,35 18.75,34.71875 18.75,34.375 Z M32.5,7.5 L23.75,7.5 L23.75,16.25 L32.5,16.25 L32.5,7.5 L32.5,7.5 Z M34.375,5 C34.71875,5 35,5.28125 35,5.625 L35,18.125 C35,18.46875 34.71875,18.75 34.375,18.75 L21.875,18.75 C21.53125,18.75 21.25,18.46875 21.25,18.125 L21.25,5.625 C21.25,5.28125 21.53125,5 21.875,5 L34.375,5 Z M35,34.375 L35,21.875 C35,21.53125 34.71875,21.25 34.375,21.25 L21.875,21.25 C21.53125,21.25 21.25,21.53125 21.25,21.875 L21.25,34.375 C21.25,34.71875 21.53125,35 21.875,35 L34.375,35 C34.71875,35 35,34.71875 35,34.375 Z" id="形状" fill="#FFFFFF"></path>
                </g>
            </g>
        </g>
    </g>
</svg>