<?xml version="1.0" encoding="UTF-8"?>
<svg width="14px" height="16px" viewBox="0 0 14 16" version="1.1" xmlns="http://www.w3.org/2000/svg" xmlns:xlink="http://www.w3.org/1999/xlink">
    <!-- Generator: Sketch 56.2 (81672) - https://sketch.com -->
    <title>标签2@2x</title>
    <desc>Created with Sketch.</desc>
    <g id="页面1" stroke="none" stroke-width="1" fill="none" fill-rule="evenodd">
        <g id="allsaas" transform="translate(-384.000000, -521.000000)" fill-rule="nonzero">
            <g id="编组-6" transform="translate(382.000000, 518.000000)">
                <g id="编组-4">
                    <g id="标签2" transform="translate(0.000000, 2.000000)">
                        <rect id="矩形" fill="#000000" opacity="0" x="0" y="0" width="18" height="18"></rect>
                        <path d="M13.21875,1.6875 L4.78125,1.6875 C3.54375,1.6875 2.53125,2.7 2.53125,3.9375 L2.53125,15.01875 C2.53125,15.328125 2.615625,15.6375 2.784375,15.890625 C3.2625,16.678125 4.303125,16.93125 5.090625,16.453125 L8.746875,14.23125 C8.915625,14.11875 9.140625,14.11875 9.3375,14.23125 L12.88125,16.425 C13.134375,16.59375 13.44375,16.678125 13.753125,16.678125 C14.68125,16.678125 15.440625,15.91875 15.440625,14.990625 L15.440625,3.9375 C15.46875,2.7 14.45625,1.6875 13.21875,1.6875 L13.21875,1.6875 Z M14.34375,14.990625 C14.34375,15.3 14.090625,15.553125 13.78125,15.553125 C13.66875,15.553125 13.584375,15.525 13.5,15.46875 L9.95625,13.275 C9.421875,12.9375 8.746875,12.9375 8.2125,13.275 L4.55625,15.496875 C4.303125,15.665625 3.9375,15.58125 3.796875,15.3 C3.740625,15.215625 3.7125,15.103125 3.7125,15.01875 L3.7125,3.9375 C3.7125,3.31875 4.21875,2.8125 4.8375,2.8125 L13.275,2.8125 C13.89375,2.8125 14.4,3.31875 14.4,3.9375 L14.4,14.990625 L14.34375,14.990625 Z M11.25,5.0625 L6.75,5.0625 C6.440625,5.0625 6.1875,5.315625 6.1875,5.625 C6.1875,5.934375 6.440625,6.1875 6.75,6.1875 L11.25,6.1875 C11.559375,6.1875 11.8125,5.934375 11.8125,5.625 C11.8125,5.315625 11.559375,5.0625 11.25,5.0625 Z" id="形状" fill="#212121"></path>
                    </g>
                </g>
            </g>
        </g>
    </g>
</svg>