<?xml version="1.0" encoding="UTF-8"?>
<svg width="12px" height="16px" viewBox="0 0 12 16" version="1.1" xmlns="http://www.w3.org/2000/svg" xmlns:xlink="http://www.w3.org/1999/xlink">
    <!-- Generator: Sketch 56.2 (81672) - https://sketch.com -->
    <title>66回到顶部</title>
    <desc>Created with Sketch.</desc>
    <g id="页面1" stroke="none" stroke-width="1" fill="none" fill-rule="evenodd">
        <g id="allsaas" transform="translate(-1334.000000, -1421.000000)" fill-rule="nonzero">
            <g id="编组-12" transform="translate(1320.000000, 1409.000000)">
                <g id="66回到顶部" transform="translate(4.000000, 4.000000)">
                    <rect id="矩形" fill="#000000" opacity="0" x="0" y="0" width="32" height="32"></rect>
                    <path d="M21.134375,10.934375 L10.875,10.934375 C10.39375,10.934375 10.003125,10.484375 10.003125,9.934375 C10.003125,9.384375 10.396875,8.934375 10.875,8.934375 L21.13125,8.934375 C21.6125,8.934375 22.0031435,9.384375 22.0031435,9.934375 C22.00625,10.484375 21.6125,10.934375 21.134375,10.934375 L21.134375,10.934375 Z M21.784375,17.634375 L17.01875,12.709375 C16.434375,12.20625 15.56875,12.20625 14.9875,12.709375 L10.21875,17.634375 C10.075,17.80625 9.996875,18.01875 9.99375,18.24375 C10.00625,18.796875 10.465625,19.234375 11.01875,19.221875 L12.45,19.221875 C12.7375,19.209375 12.978125,19.428125 12.99375,19.715625 L12.99375,22.021875 C12.996875,22.596875 13.4625,23.0625 14.0375,23.0625 L17.990625,23.0625 C18.528125,23.0875 18.978125,22.66875 19.003125,22.134375 L19.003125,19.728125 C19.00625,19.440625 19.240625,19.2125 19.528125,19.215625 L20.9125,19.215625 C21.465625,19.265625 21.953125,18.859375 22.003125,18.30625 L22.003125,18.23125 C22.003125,18.00625 21.921875,17.790625 21.778125,17.61875 L21.784375,17.634375 L21.784375,17.634375 Z" id="形状" fill-opacity="0.497514205" fill="#2B88FE"></path>
                </g>
            </g>
        </g>
    </g>
</svg>